<?xml version="1.0" encoding="UTF-8" standalone="no"?>
<!DOCTYPE svg PUBLIC "-//W3C//DTD SVG 1.1//EN" "http://www.w3.org/Graphics/SVG/1.1/DTD/svg11.dtd">
<svg width="100%" height="100%" viewBox="0 0 1154 998" version="1.1" xmlns="http://www.w3.org/2000/svg" xmlns:xlink="http://www.w3.org/1999/xlink" xml:space="preserve" xmlns:serif="http://www.serif.com/" style="fill-rule:evenodd;clip-rule:evenodd;stroke-miterlimit:10;">
    <g transform="matrix(1,0,0,1,-2474.96,-1147.83)">
        <g transform="matrix(4.16667,0,0,4.16667,0,0)">
            <g transform="matrix(1,0,0,1,628.538,364.682)">
                <path d="M0,73.513C0,83.749 0.295,93.049 0.887,101.411C1.479,109.78 2.952,116.91 5.314,122.816C7.677,128.72 11.22,133.251 15.943,136.398C20.665,139.548 27.061,141.119 35.133,141.119C43.397,141.119 50.041,139.35 55.062,135.807C60.079,132.265 63.964,127.69 66.723,122.08C69.476,116.469 71.345,110.224 72.333,103.333C73.315,96.444 73.809,89.751 73.809,83.257C73.809,75.578 73.659,68.939 73.364,63.329C73.069,57.718 72.524,52.75 71.741,48.418C70.953,44.092 69.869,40.35 68.493,37.199C67.114,34.053 65.44,31.1 63.474,28.343C60.521,24.409 56.686,21.159 51.96,18.6C47.238,16.044 41.231,14.763 33.951,14.763C27.061,14.763 21.404,16.142 16.976,18.895C12.547,21.654 9.103,25.586 6.644,30.704C4.18,35.825 2.459,41.973 1.479,49.157C0.488,56.342 0,64.461 0,73.513M51.075,-71.741L99.199,-71.741L99.199,136.988L121.934,136.988L121.934,141.119L74.398,141.119L74.398,115.437L73.809,115.437C73.02,117.799 71.838,120.654 70.267,123.998C68.688,127.346 66.378,130.595 63.328,133.742C60.273,136.89 56.435,139.598 51.814,141.86C47.187,144.119 41.526,145.254 34.836,145.254C26.174,145.254 17.959,143.379 10.186,139.644C2.409,135.909 -4.429,130.889 -10.333,124.586C-16.237,118.291 -20.915,111.057 -24.355,102.887C-27.802,94.724 -29.523,86.112 -29.523,77.055C-29.523,68.198 -27.854,59.738 -24.505,51.664C-21.159,43.597 -16.634,36.563 -10.923,30.558C-5.218,24.556 1.375,19.735 8.856,16.092C16.336,12.45 24.307,10.629 32.771,10.629C43.592,10.629 52.352,13.285 59.048,18.6C65.735,23.913 70.461,30.41 73.219,38.084L73.809,38.084L73.809,-67.607L51.075,-67.607L51.075,-71.741Z" style="fill:rgb(204,6,103);fill-rule:nonzero;"/>
            </g>
        </g>
        <g transform="matrix(4.16667,0,0,4.16667,0,0)">
            <g transform="matrix(1,0,0,1,628.538,364.682)">
                <path d="M0,73.513C0,83.749 0.295,93.049 0.887,101.411C1.479,109.78 2.952,116.91 5.314,122.816C7.677,128.72 11.22,133.251 15.943,136.398C20.665,139.548 27.061,141.119 35.133,141.119C43.397,141.119 50.041,139.35 55.062,135.807C60.079,132.265 63.964,127.69 66.723,122.08C69.476,116.469 71.345,110.224 72.333,103.333C73.315,96.444 73.809,89.751 73.809,83.257C73.809,75.578 73.659,68.939 73.364,63.329C73.069,57.718 72.524,52.75 71.741,48.418C70.953,44.092 69.869,40.35 68.493,37.199C67.114,34.053 65.44,31.1 63.474,28.343C60.521,24.409 56.686,21.159 51.96,18.6C47.238,16.044 41.231,14.763 33.951,14.763C27.061,14.763 21.404,16.142 16.976,18.895C12.547,21.654 9.103,25.586 6.644,30.704C4.18,35.825 2.459,41.973 1.479,49.157C0.488,56.342 0,64.461 0,73.513ZM51.075,-71.741L99.199,-71.741L99.199,136.988L121.934,136.988L121.934,141.119L74.398,141.119L74.398,115.437L73.809,115.437C73.02,117.799 71.838,120.654 70.267,123.998C68.688,127.346 66.378,130.595 63.328,133.742C60.273,136.89 56.435,139.598 51.814,141.86C47.187,144.119 41.526,145.254 34.836,145.254C26.174,145.254 17.959,143.379 10.186,139.644C2.409,135.909 -4.429,130.889 -10.333,124.586C-16.237,118.291 -20.915,111.057 -24.355,102.887C-27.802,94.724 -29.523,86.112 -29.523,77.055C-29.523,68.198 -27.854,59.738 -24.505,51.664C-21.159,43.597 -16.634,36.563 -10.923,30.558C-5.218,24.556 1.375,19.735 8.856,16.092C16.336,12.45 24.307,10.629 32.771,10.629C43.592,10.629 52.352,13.285 59.048,18.6C65.735,23.913 70.461,30.41 73.219,38.084L73.809,38.084L73.809,-67.607L51.075,-67.607L51.075,-71.741Z" style="fill:none;fill-rule:nonzero;stroke:rgb(204,6,103);stroke-width:1px;"/>
            </g>
        </g>
        <g transform="matrix(4.16667,0,0,4.16667,0,0)">
            <g transform="matrix(1,0,0,1,752.775,380.034)">
                <path d="M0,121.636L22.732,121.636L22.732,3.248L0,3.248L0,-0.886L47.531,-0.886L47.531,28.935L48.119,28.935C48.906,25.983 50.188,22.636 51.961,18.895C53.729,15.159 56.189,11.565 59.339,8.119C62.485,4.678 66.277,1.773 70.707,-0.589C75.135,-2.952 80.495,-4.132 86.797,-4.132C91.32,-4.132 95.258,-3.393 98.606,-1.919C101.951,-0.442 104.705,1.43 106.874,3.692C109.036,5.957 110.609,8.562 111.597,11.517C112.58,14.467 113.072,17.421 113.072,20.372C113.072,26.867 111.597,31.199 108.645,33.361C105.692,35.53 102.246,36.61 98.311,36.61C89.648,36.61 85.32,33.856 85.32,28.343C85.32,26.571 85.513,25.147 85.911,24.062C86.304,22.982 86.746,21.9 87.24,20.816C87.728,19.735 88.171,18.502 88.568,17.124C88.959,15.748 89.16,13.78 89.16,11.22C89.16,4.924 85.713,1.773 78.825,1.773C75.675,1.773 72.332,2.953 68.788,5.316C65.244,7.676 61.946,11.123 58.898,15.648C55.845,20.179 53.287,25.639 51.223,32.032C49.154,38.432 48.119,45.762 48.119,54.028L48.119,121.636L73.805,121.636L73.805,125.768L0,125.768L0,121.636Z" style="fill:rgb(111,111,110);fill-rule:nonzero;stroke:rgb(111,111,110);stroke-width:1px;"/>
            </g>
        </g>
        <g transform="matrix(4.16667,0,0,4.16667,0,0)">
            <g transform="matrix(-0.853448,-0.521178,-0.521178,0.853448,724.096,309.943)">
                <path d="M-13.709,-48.753C-18.153,-33.356 -21.757,-12.271 -21.928,-2.458L-13.709,3.855C-11.349,-7.424 -5.713,-26.187 -0.533,-38.549L-13.709,-48.753Z" style="fill:rgb(29,29,27);fill-rule:nonzero;"/>
            </g>
        </g>
    </g>
</svg>
